<svg height="24" width="24" version="1.1" id="Layer_1" xmlns="http://www.w3.org/2000/svg" xmlns:xlink="http://www.w3.org/1999/xlink" viewBox="0 0 512.00 512.00" xml:space="preserve" fill="#000000"><g id="SVGRepo_bgCarrier" stroke-width="0"></g><g id="SVGRepo_tracerCarrier" stroke-linecap="round" stroke-linejoin="round"></g><g id="SVGRepo_iconCarrier"> <circle style="fill:#324A5E;" cx="256" cy="256" r="256"></circle> <path style="fill:#2B3B4E;" d="M510.667,282.269L393.992,165.593l-139.428,70.006L119.465,348.203l162.494,162.494 C402.511,498.557,498.385,402.78,510.667,282.269z"></path> <path style="fill:#ffffff;" d="M376.099,355.556H135.901c-12.219,0-22.123-9.906-22.123-22.123V178.567 c0-12.219,9.906-22.123,22.123-22.123h240.199c12.219,0,22.123,9.906,22.123,22.123v154.865 C398.222,345.65,388.317,355.556,376.099,355.556z"></path> <path style="fill:#d3d3d3;" d="M376.099,156.444H256.288v199.111h119.811c12.219,0,22.123-9.906,22.123-22.123V178.567 C398.222,166.35,388.317,156.444,376.099,156.444z"></path> <path style="fill:#7cb6d8;" d="M256,270.222l142.222-85.333v-6.322c0-12.219-9.906-22.123-22.123-22.123H135.901 c-12.217,0-22.123,9.906-22.123,22.123v6.322L256,270.222z"></path> <path style="fill:#5c9ed3;" d="M398.222,178.567c0-12.217-9.906-22.123-22.123-22.123H256.288V270.05l141.934-85.161V178.567z"></path> </g></svg>