<svg width="24" height="24" viewBox="0 0 20 20" fill="none" xmlns="http://www.w3.org/2000/svg">
<g clip-path="url(#clip0_3228_28429)">
<path d="M10 20C15.5228 20 20 15.5228 20 10C20 4.47715 15.5228 0 10 0C4.47715 0 0 4.47715 0 10C0 15.5228 4.47715 20 10 20Z" fill="url(#paint0_radial_3228_28429)"/>
<path d="M10 4C6.6205 4 4 6.47643 4 9.81984C4 11.5688 4.717 13.0808 5.884 14.1247C5.9815 14.2117 6.0415 14.3347 6.0445 14.4667L6.0775 15.5347C6.0799 15.6133 6.10157 15.6901 6.1406 15.7583C6.17963 15.8265 6.23482 15.8842 6.30133 15.9261C6.36784 15.968 6.44363 15.9929 6.52204 15.9987C6.60044 16.0045 6.67907 15.9909 6.751 15.9592L7.942 15.4342C8.0425 15.3892 8.1565 15.3817 8.263 15.4102C8.8105 15.5602 9.3925 15.6412 10 15.6412C13.3795 15.6412 16 13.1647 16 9.82134C16 6.47793 13.3795 4 10 4Z" fill="white"/>
<path d="M6.05094 11.5526L7.98251 8.70113C8.05517 8.59377 8.15096 8.5016 8.26384 8.43043C8.37671 8.35926 8.50421 8.31064 8.6383 8.28764C8.77238 8.26464 8.91013 8.26776 9.04285 8.2968C9.17558 8.32584 9.30039 8.38017 9.40941 8.45637L10.9464 9.52874C11.0151 9.57654 11.0985 9.60225 11.1843 9.60198C11.27 9.6017 11.3533 9.57545 11.4215 9.52721L13.4961 8.06168C13.7723 7.86587 14.1339 8.17489 13.9498 8.44872L12.0166 11.2987C11.944 11.406 11.8482 11.4982 11.7353 11.5694C11.6224 11.6405 11.4949 11.6892 11.3608 11.7122C11.2267 11.7352 11.089 11.732 10.9563 11.703C10.8236 11.674 10.6987 11.6196 10.5897 11.5434L9.05268 10.4711C8.98406 10.4233 8.90058 10.3976 8.81487 10.3978C8.72915 10.3981 8.64586 10.4244 8.5776 10.4726L6.50301 11.9381C6.22684 12.1339 5.86518 11.8265 6.05094 11.5526V11.5526Z" fill="url(#paint1_radial_3228_28429)"/>
</g>
<defs>
<radialGradient id="paint0_radial_3228_28429" cx="0" cy="0" r="1" gradientUnits="userSpaceOnUse" gradientTransform="translate(3.35 19.9995) scale(22 21.9994)">
<stop offset="0.0885417" stop-color="#0099FF"/>
<stop offset="0.604167" stop-color="#A033FF"/>
<stop offset="0.9999" stop-color="#FF5280"/>
<stop offset="1" stop-color="#FF7061"/>
</radialGradient>
<radialGradient id="paint1_radial_3228_28429" cx="0" cy="0" r="1" gradientUnits="userSpaceOnUse" gradientTransform="translate(7.34 11.9999) scale(8.8 4.39988)">
<stop stop-color="#0099FF"/>
<stop offset="0.528646" stop-color="#A033FF"/>
<stop offset="0.940104" stop-color="#FF5280"/>
<stop offset="1" stop-color="#FF7061"/>
</radialGradient>
<clipPath id="clip0_3228_28429">
<rect width="20" height="20" fill="white" transform="matrix(1 0 0 -1 0 20)"/>
</clipPath>
</defs>
<script xmlns=""/></svg>