<svg xmlns="http://www.w3.org/2000/svg" viewBox="0 0 600 600" width="50" height="50">
  <circle cx="300" cy="300" r="300" fill="#024A57" />

  <g transform="translate(300,300) scale(0.9) translate(-300,-300)">
    <path fill="#A4FEE5" d="M471.734436,430.718872C453.562836,451.937531 430.729401,461.284698 403.247162,461.168640C334.426849,460.877960 265.604523,461.075775 196.782990,461.071686C153.340805,461.069092 119.883583,433.668274 112.829163,390.961700C111.075615,380.345947 112.291504,369.031647 113.459885,358.180267C116.969810,325.581543 121.031021,293.040558 125.074158,260.501526C127.493652,241.029480 128.960312,221.310196 133.192902,202.220352C140.880356,167.548370 174.231857,141.295212 209.806168,141.075455C270.459778,140.700760 331.119476,140.649033 391.772430,141.069397C432.040894,141.348480 466.489349,173.508469 471.191132,213.595947C476.911835,262.370850 482.686737,311.141937 488.915405,359.853638C491.795746,382.379547 489.828583,403.664368 477.142853,423.118591C475.509979,425.622681 473.700073,428.011353 471.734436,430.718872M156.392349,335.951538C155.005493,347.518463 153.632401,359.087067 152.229019,370.651978C148.843445,398.551819 168.387405,421.009949 196.386475,421.041534C266.359039,421.120483 336.331879,421.138275 406.304352,421.022614C433.406464,420.977814 453.070557,397.646484 449.723938,370.845398C443.537384,321.300964 437.664856,271.716003 431.938354,222.115967C429.052948,197.124222 411.213074,180.851532 385.945770,180.917114C376.282959,180.942184 366.620056,180.929977 356.957184,180.930573C308.975952,180.933502 260.994232,180.810577 213.013687,180.994202C191.847382,181.075211 173.695206,196.294006 170.932571,217.141220C165.730728,256.395111 161.333664,295.755676 156.392349,335.951538z"/>
    <path fill="#024A57" d="M156.497192,335.511719C161.333664,295.755676 165.730728,256.395111 170.932571,217.141220C173.695206,196.294006 191.847382,181.075211 213.013687,180.994202C260.994232,180.810577 308.975952,180.933502 356.957184,180.930573C366.620056,180.929977 376.282959,180.942184 385.945770,180.917114C411.213074,180.851532 429.052948,197.124222 431.938354,222.115967C437.664856,271.716003 443.537384,321.300964 449.723938,370.845398C453.070557,397.646484 433.406464,420.977814 406.304352,421.022614C336.331879,421.138275 266.359039,421.120483 196.386475,421.041534C168.387405,421.009949 148.843445,398.551819 152.229019,370.651978C153.632401,359.087067 155.005493,347.518463 156.497192,335.511719M262.443787,335.096436C247.750046,330.502869 234.275406,323.415375 221.312897,315.214569C211.839706,309.221344 200.054352,311.668915 193.981903,320.652313C187.816162,329.773743 190.140411,341.896576 199.395554,348.342529C202.529724,350.525360 205.802765,352.520966 209.093018,354.465668C233.889359,369.121796 260.351288,378.910217 289.271179,380.915131C330.264709,383.756958 366.872772,370.878174 400.756653,348.878906C410.609680,342.481781 413.184174,330.164703 407.029816,320.939514C400.729675,311.495728 388.870483,309.251556 378.871521,315.431854C373.227264,318.920502 367.529175,322.361450 361.640350,325.408295C330.162994,341.694519 297.440430,346.106598 262.443787,335.096436z"/>
    <path fill="#A4FDE5" d="M262.828308,335.208130C297.440430,346.106598 330.162994,341.694519 361.640350,325.408295C367.529175,322.361450 373.227264,318.920502 378.871521,315.431854C388.870483,309.251556 400.729675,311.495728 407.029816,320.939514C413.184174,330.164703 410.609680,342.481781 400.756653,348.878906C366.872772,370.878174 330.264709,383.756958 289.271179,380.915131C260.351288,378.910217 233.889359,369.121796 209.093018,354.465668C205.802765,352.520966 202.529724,350.525360 199.395554,348.342529C190.140411,341.896576 187.816162,329.773743 193.981903,320.652313C200.054352,311.668915 211.839706,309.221344 221.312897,315.214569C234.275406,323.415375 247.750046,330.502869 262.828308,335.208130z"/>
  </g>
</svg>
