<svg width="24" height="24" viewBox="0 0 20 20" fill="none" xmlns="http://www.w3.org/2000/svg">
<g clip-path="url(#clip0_3228_28405)">
<rect width="20" height="20" rx="10" transform="matrix(1 0 0 -1 0 20)" fill="#0066FF"/>
<path d="M11.4745 4.5L8.55172 4.5C7.40058 4.50282 6.29301 4.96535 5.45107 5.79487C4.60912 6.62438 4.09504 7.75956 4.01192 8.97277C3.9288 10.186 4.28277 11.3875 5.00287 12.3365C5.72296 13.2855 6.75595 13.9118 7.8947 14.0898C7.98829 14.7249 7.94846 15.374 7.77803 15.9909C7.74458 16.0851 7.74458 16.1888 7.77803 16.2829C7.82501 16.3717 7.90165 16.4388 7.99295 16.4711C8.08144 16.5096 8.18078 16.5096 8.26927 16.4711C9.27438 15.9794 10.114 15.176 10.6763 14.1677H11.4377C12.6477 14.1677 13.8081 13.6598 14.6637 12.7557C15.5193 11.8516 16 10.6254 16 9.34683C16 8.06825 15.5193 6.84204 14.6637 5.93795C13.8081 5.03386 12.6477 4.52596 11.4377 4.52596L11.4745 4.5ZM8.17717 10.0281C8.08956 10.0281 8.00281 10.0098 7.92195 9.97414C7.84108 9.93852 7.76771 9.88633 7.70605 9.82057C7.64439 9.75481 7.59566 9.6768 7.5627 9.59103C7.52974 9.50527 7.51319 9.41344 7.514 9.32087C7.514 9.13502 7.58386 8.95679 7.70823 8.82537C7.83259 8.69395 8.00129 8.62013 8.17717 8.62013C8.35305 8.62013 8.52173 8.69395 8.64609 8.82537C8.77046 8.95679 8.84032 9.13502 8.84032 9.32087C8.84113 9.41344 8.82458 9.50527 8.79162 9.59103C8.75866 9.6768 8.70993 9.75481 8.64827 9.82057C8.58661 9.88633 8.51324 9.93852 8.43237 9.97414C8.35151 10.0098 8.26478 10.0281 8.17717 10.0281ZM10.0193 10.0281C9.844 10.0261 9.67643 9.95158 9.55261 9.82047C9.4287 9.68686 9.35831 9.50792 9.35611 9.32087C9.35637 9.22903 9.37388 9.13814 9.4076 9.0535C9.44133 8.96885 9.49062 8.89212 9.55261 8.82775C9.61379 8.76163 9.68686 8.7091 9.76752 8.67324C9.84819 8.63737 9.93482 8.6189 10.0223 8.6189C10.1099 8.6189 10.1965 8.63737 10.2771 8.67324C10.3578 8.7091 10.4309 8.76163 10.4921 8.82775C10.5541 8.89212 10.6034 8.96885 10.6371 9.0535C10.6708 9.13814 10.6883 9.22903 10.6886 9.32087C10.6895 9.41386 10.6725 9.50607 10.6388 9.59195C10.605 9.67782 10.5551 9.75555 10.4921 9.82047C10.3683 9.95158 10.2007 10.0261 10.0254 10.0281H10.0193ZM11.8614 10.0281C11.7738 10.0281 11.687 10.0098 11.6062 9.97414C11.5253 9.93852 11.4519 9.88633 11.3903 9.82057C11.3286 9.75481 11.2799 9.6768 11.2469 9.59103C11.214 9.50527 11.1974 9.41344 11.1982 9.32087C11.1982 9.13502 11.2681 8.95679 11.3925 8.82537C11.5168 8.69395 11.6855 8.62013 11.8614 8.62013C12.0368 8.62183 12.2045 8.69618 12.3285 8.82723C12.4526 8.95828 12.5229 9.13554 12.5245 9.32087C12.5259 9.50742 12.4575 9.68698 12.3342 9.82047C12.2078 9.9514 12.0384 10.0258 11.8614 10.0281V10.0281Z" fill="white"/>
</g>
<defs>
<clipPath id="clip0_3228_28405">
<rect width="20" height="20" fill="white" transform="matrix(1 0 0 -1 0 20)"/>
</clipPath>
</defs>
<script xmlns=""/></svg>